<svg width="200" height="95" viewBox="0 0 200 95" fill="none" xmlns="http://www.w3.org/2000/svg">
<g clip-path="url(#clip0)">
<path fill-rule="evenodd" clip-rule="evenodd" d="M200 48.6113L55.1879 51.8779L53.1662 35.7135L38.7735 94.3249L36.7069 24.1557L23.8831 70.1539L19.9715 51.4998L0 48.7194H21.8099L24.1101 57.7767L41.0611 0L40.8032 72.0487L54.5543 15.1625L57.3031 48.6113H200Z" fill="#0011FF"/>
<path fill-rule="evenodd" clip-rule="evenodd" d="M81.8069 33.1106C82.0901 33.5013 82.1615 34.0174 82.1615 34.4883C82.1615 34.9171 82.0895 35.3375 81.9237 35.7339L81.9173 35.7494L81.91 35.7646C81.4445 36.7343 80.3472 36.9683 79.3651 36.9683L75.5617 36.968C74.7284 36.9923 74.3605 37.2829 74.3605 38.1327C74.3605 39.0215 74.7338 39.2948 75.6048 39.2706L79.3651 39.2703C80.651 39.2703 81.8117 38.7909 82.8372 38.0677C84.0227 37.1839 84.4901 35.9562 84.4901 34.4973C84.4901 33.5611 84.2925 32.6577 83.7489 31.8832C82.4651 30.0542 79.9552 29.6709 77.8816 29.6709H69.0027C67.9106 29.6709 67.6199 30.2878 67.6199 31.3119V45.3679C67.6199 46.2277 67.9525 46.5351 68.8068 46.5411C69.6661 46.5473 69.9869 46.2646 69.9493 45.3962L69.9487 45.3679V33.9849C69.9487 32.7771 70.62 31.9995 71.8539 31.9995L77.8346 31.9998C78.6667 32.025 79.7516 32.0689 80.5498 32.3133C81.0218 32.4576 81.5209 32.6899 81.8069 33.1106ZM105.874 31.361L105.847 30.8755V30.8575C105.847 30.0077 105.471 29.7183 104.639 29.7018C103.789 29.6849 103.48 29.975 103.518 30.8289L103.518 30.8575V38.0958C103.571 39.2839 103.359 40.453 102.731 41.4769C101.551 43.4025 99.71 44.2391 97.4921 44.2391C96.4736 44.2391 95.4941 43.9861 94.5705 43.5655L94.5553 43.5584C92.3391 42.4792 91.3857 40.5441 91.3857 38.1371V30.8433L91.3864 30.8291C91.4238 29.9691 91.1045 29.6849 90.2521 29.7018C89.4217 29.7183 89.057 30.0131 89.057 30.8575V38.1371C89.057 40.4605 89.6783 42.6066 91.3539 44.2666C93.0326 45.9296 95.1575 46.5679 97.4921 46.5679C99.8132 46.5679 101.937 45.9443 103.602 44.2819C105.273 42.6125 105.874 40.4615 105.874 38.1371V31.361ZM114.895 44.2123C113.398 44.2623 112.823 43.1259 112.823 41.7725V30.8433L112.823 30.8291C112.861 29.9656 112.536 29.6884 111.695 29.6972C110.865 29.7214 110.494 30.0096 110.494 30.8575V44.9267C110.494 45.9497 110.788 46.5411 111.872 46.5411H126.28C127.086 46.5411 127.284 46.1339 127.284 45.3679C127.284 44.67 127.146 44.2123 126.387 44.2123H114.895ZM134.534 33.1175C134.818 32.6892 135.32 32.4585 135.796 32.3131C136.59 32.0707 137.574 31.9938 138.4 31.9471L138.419 31.9461H147.808C148.551 31.9526 148.672 31.479 148.672 30.8041C148.672 30.0557 148.485 29.6856 147.7 29.7235L147.684 29.7243H138.504C136.448 29.7243 133.909 30.0784 132.627 31.8775C132.09 32.6607 131.882 33.5546 131.882 34.4973C131.882 35.9475 132.336 37.1887 133.52 38.0667C134.53 38.8153 135.69 39.3052 136.962 39.2705L143.627 39.2703C144.625 39.2703 145.716 39.5197 146.176 40.508L146.183 40.5242L146.19 40.5408C146.344 40.9263 146.424 41.3305 146.424 41.7457C146.424 42.229 146.355 42.7749 146.061 43.1611C145.772 43.5556 145.27 43.7777 144.816 43.9196C143.994 44.1769 142.938 44.2123 142.081 44.2123H132.806C132.036 44.2123 131.882 44.6528 131.882 45.3679C131.882 46.1341 132.08 46.5411 132.886 46.5411H142.05C144.115 46.5411 146.702 46.1909 147.983 44.3567C148.526 43.5802 148.726 42.6792 148.726 41.7413C148.726 40.2929 148.275 39.0478 147.089 38.1729C146.073 37.4235 144.918 36.942 143.627 36.9683H136.98C135.996 36.9683 134.909 36.7344 134.437 35.7683L134.429 35.7515C134.255 35.3657 134.211 34.9078 134.211 34.4883C134.211 34.0326 134.265 33.5013 134.534 33.1175ZM155.648 39.2703L162.173 39.2706C163.044 39.2948 163.418 39.0215 163.418 38.1327C163.418 37.2829 163.05 36.9923 162.235 36.9683H155.648V33.8781C155.648 32.7972 156.208 32.0313 157.321 31.9479L157.346 31.9461H169.24C169.989 31.9528 170.109 31.479 170.109 30.7995C170.109 30.1093 169.976 29.6577 169.212 29.6709H154.528C153.544 29.6709 153.319 30.2424 153.319 31.1559V45.0827C153.319 46.0482 153.617 46.5411 154.622 46.5411H169.105C169.911 46.5411 170.109 46.1339 170.109 45.3679C170.109 44.67 169.971 44.2123 169.212 44.2123H157.37C156.175 44.2123 155.648 43.3415 155.648 42.2315V39.2703Z" fill="black"/>
</g>
<defs>
<clipPath id="clip0">
<rect width="200" height="94.325" fill="white"/>
</clipPath>
</defs>
</svg>
